<svg version="1.0" preserveAspectRatio="xMidYMid meet" viewBox="80.93549999999999 80.935498057548 215.20499999999998 213.74999487" zoomAndPan="magnify" xmlns:xlink="http://www.w3.org/1999/xlink" xmlns="http://www.w3.org/2000/svg" style="max-height: 500px" width="215.20499999999998" height="213.74999487"><defs><filter id="c9a3d327c4" height="100%" width="100%" y="0%" x="0%"><feColorMatrix color-interpolation-filters="sRGB" values="0 0 0 0 1 0 0 0 0 1 0 0 0 0 1 0 0 0 1 0"/></filter><clipPath id="cb0bac23c7"><path clip-rule="nonzero" d="M 82.421875 97.199219 L 292.652344 97.199219 L 292.652344 277.800781 L 82.421875 277.800781 Z M 82.421875 97.199219"/></clipPath><clipPath id="9168db15fb"><path clip-rule="nonzero" d="M 292.578125 187.5 L 240.039062 277.800781 L 134.960938 277.800781 L 82.421875 187.5 L 134.960938 97.199219 L 240.039062 97.199219 Z M 292.578125 187.5"/></clipPath><mask id="101bf0cbb5"><g filter="url(#c9a3d327c4)"><rect fill-opacity="0.58" height="449.999989" y="-37.499999" fill="#000000" width="450" x="-37.5"/></g></mask><clipPath id="8aa18bf8bd"><path clip-rule="nonzero" d="M 1.109375 0.34375 L 181.710938 0.34375 L 181.710938 210.574219 L 1.109375 210.574219 Z M 1.109375 0.34375"/></clipPath><clipPath id="05d0a68641"><path clip-rule="nonzero" d="M 91.410156 0.421875 L 181.710938 52.957031 L 181.710938 158.035156 L 91.410156 210.574219 L 1.109375 158.035156 L 1.109375 52.957031 Z M 91.410156 0.421875"/></clipPath><clipPath id="67ad9317e8"><rect height="211" y="0" width="182" x="0"/></clipPath><clipPath id="c8ce7cefe2"><path clip-rule="nonzero" d="M 110.027344 96.210938 L 266.796875 96.210938 L 266.796875 278.703125 L 110.027344 278.703125 Z M 110.027344 96.210938"/></clipPath><clipPath id="1079e0f1d2"><path clip-rule="nonzero" d="M 188.410156 96.28125 L 266.796875 141.886719 L 266.796875 233.097656 L 188.410156 278.703125 L 110.027344 233.097656 L 110.027344 141.886719 Z M 188.410156 96.28125"/></clipPath><clipPath id="aa8bd1ef65"><path clip-rule="nonzero" d="M 154.488281 153.574219 L 222.335938 153.574219 L 222.335938 221.425781 L 154.488281 221.425781 Z M 154.488281 153.574219"/></clipPath><clipPath id="593e2eb207"><path clip-rule="nonzero" d="M 160.605469 159.695312 L 216.214844 159.695312 L 216.214844 215.304688 L 160.605469 215.304688 Z M 160.605469 159.695312"/></clipPath><mask id="f2dfccc538"><g filter="url(#c9a3d327c4)"><rect fill-opacity="0.3" height="449.999989" y="-37.499999" fill="#000000" width="450" x="-37.5"/></g></mask><clipPath id="a428b96287"><path clip-rule="nonzero" d="M 0.199219 1 L 14.601562 1 L 14.601562 73.519531 L 0.199219 73.519531 Z M 0.199219 1"/></clipPath><clipPath id="b2f48d6cc1"><rect height="74" y="0" width="15" x="0"/></clipPath><mask id="624d08896a"><g filter="url(#c9a3d327c4)"><rect fill-opacity="0.3" height="449.999989" y="-37.499999" fill="#000000" width="450" x="-37.5"/></g></mask><clipPath id="44c2bd42bc"><path clip-rule="nonzero" d="M 0.199219 0.078125 L 14.601562 0.078125 L 14.601562 72 L 0.199219 72 Z M 0.199219 0.078125"/></clipPath><clipPath id="fd5bfc6074"><rect height="73" y="0" width="15" x="0"/></clipPath><mask id="5023ccdf22"><g filter="url(#c9a3d327c4)"><rect fill-opacity="0.3" height="449.999989" y="-37.499999" fill="#000000" width="450" x="-37.5"/></g></mask><clipPath id="e5c986fda4"><path clip-rule="nonzero" d="M 1 0.238281 L 72 0.238281 L 72 14.640625 L 1 14.640625 Z M 1 0.238281"/></clipPath><clipPath id="4d8875b1e4"><rect height="15" y="0" width="73" x="0"/></clipPath><mask id="c04fb923e2"><g filter="url(#c9a3d327c4)"><rect fill-opacity="0.3" height="449.999989" y="-37.499999" fill="#000000" width="450" x="-37.5"/></g></mask><clipPath id="542983fa2f"><path clip-rule="nonzero" d="M 1 0.238281 L 72 0.238281 L 72 14.640625 L 1 14.640625 Z M 1 0.238281"/></clipPath><clipPath id="94680b78c0"><rect height="15" y="0" width="73" x="0"/></clipPath></defs><g clip-path="url(#cb0bac23c7)"><g clip-path="url(#9168db15fb)"><path fill-rule="nonzero" fill-opacity="1" d="M 82.421875 97.199219 L 292.652344 97.199219 L 292.652344 277.800781 L 82.421875 277.800781 Z M 82.421875 97.199219" fill="#5a399c"/></g></g><g mask="url(#101bf0cbb5)"><g transform="matrix(1, 0, 0, 1, 97, 82)"><g clip-path="url(#67ad9317e8)"><g clip-path="url(#8aa18bf8bd)"><g clip-path="url(#05d0a68641)"><path fill-rule="nonzero" fill-opacity="1" d="M 1.109375 210.574219 L 1.109375 0.34375 L 181.710938 0.34375 L 181.710938 210.574219 Z M 1.109375 210.574219" fill="#8c52ff"/></g></g></g></g></g><g clip-path="url(#c8ce7cefe2)"><g clip-path="url(#1079e0f1d2)"><path fill-rule="nonzero" fill-opacity="1" d="M 110.027344 278.703125 L 110.027344 96.210938 L 266.796875 96.210938 L 266.796875 278.703125 Z M 110.027344 278.703125" fill="#a693f5"/></g></g><path stroke-miterlimit="4" stroke-opacity="1" stroke-width="7" stroke="#987fff" d="M 0.00253949 3.502343 L 76.382753 3.502343" stroke-linejoin="miter" fill="none" transform="matrix(0, -0.75, 0.75, 0, 185.7834, 153.572217)" stroke-linecap="butt"/><path stroke-miterlimit="4" stroke-opacity="1" stroke-width="7" stroke="#987fff" d="M -0.00054373 3.500291 L 76.81717 3.500291" stroke-linejoin="miter" fill="none" transform="matrix(0.000000001309, -0.75, 0.75, 0.000000001309, 185.784938, 278.71053)" stroke-linecap="butt"/><path stroke-miterlimit="4" stroke-opacity="1" stroke-width="7" stroke="#987fff" d="M -0.000876165 3.499984 L 60.493919 3.499984" stroke-linejoin="miter" fill="none" transform="matrix(-0.75, 0.000000001309, -0.000000001309, -0.75, 266.788405, 190.124988)" stroke-linecap="butt"/><g clip-path="url(#aa8bd1ef65)"><path fill-rule="nonzero" fill-opacity="1" d="M 154.488281 153.574219 L 222.335938 153.574219 L 222.335938 221.425781 L 154.488281 221.425781 Z M 154.488281 153.574219" fill="#bfcaff"/></g><g clip-path="url(#593e2eb207)"><path fill-rule="nonzero" fill-opacity="1" d="M 160.605469 159.695312 L 216.214844 159.695312 L 216.214844 215.304688 L 160.605469 215.304688 Z M 160.605469 159.695312" fill="#8c52ff"/></g><path stroke-miterlimit="4" stroke-opacity="1" stroke-width="7" stroke="#987fff" d="M -0.00180392 3.499984 L 59.27945 3.499983" stroke-linejoin="miter" fill="none" transform="matrix(-0.75, -0.000000001309, 0.000000001309, -0.75, 154.47521, 190.124988)" stroke-linecap="butt"/><g mask="url(#f2dfccc538)"><g transform="matrix(1, 0, 0, 1, 181, 88)"><g clip-path="url(#b2f48d6cc1)"><g clip-path="url(#a428b96287)"><path stroke-miterlimit="4" stroke-opacity="1" stroke-width="19" stroke="#987fff" d="M 0.000428259 9.50029 L 76.818142 9.50029" stroke-linejoin="miter" fill="none" transform="matrix(0, -0.75, 0.75, 0, 0.284939, 65.898759)" stroke-linecap="butt"/></g></g></g></g><g mask="url(#624d08896a)"><g transform="matrix(1, 0, 0, 1, 181, 214)"><g clip-path="url(#fd5bfc6074)"><g clip-path="url(#44c2bd42bc)"><path stroke-miterlimit="4" stroke-opacity="1" stroke-width="19" stroke="#987fff" d="M -0.00257574 9.502341 L 76.382846 9.502341" stroke-linejoin="miter" fill="none" transform="matrix(0, -0.75, 0.75, 0, 0.283401, 64.709006)" stroke-linecap="butt"/></g></g></g></g><g mask="url(#5023ccdf22)"><g transform="matrix(1, 0, 0, 1, 214, 180)"><g clip-path="url(#4d8875b1e4)"><g clip-path="url(#e5c986fda4)"><path stroke-miterlimit="4" stroke-opacity="1" stroke-width="19" stroke="#987fff" d="M -0.000473069 9.499984 L 75.166199 9.499984" stroke-linejoin="miter" fill="none" transform="matrix(-0.75, 0, 0, -0.75, 64.70277, 14.624987)" stroke-linecap="butt"/></g></g></g></g><g mask="url(#c04fb923e2)"><g transform="matrix(1, 0, 0, 1, 90, 180)"><g clip-path="url(#94680b78c0)"><g clip-path="url(#542983fa2f)"><path stroke-miterlimit="4" stroke-opacity="1" stroke-width="19" stroke="#987fff" d="M 0.00250598 9.499984 L 75.169178 9.499984" stroke-linejoin="miter" fill="none" transform="matrix(-0.75, 0, 0, -0.75, 64.802661, 14.624987)" stroke-linecap="butt"/></g></g></g></g></svg>