<svg xmlns="http://www.w3.org/2000/svg" xmlns:xlink="http://www.w3.org/1999/xlink" zoomAndPan="magnify" preserveAspectRatio="xMidYMid meet" version="1.0" viewBox="73.44 155.61 222.49 63.69"><defs><filter x="0%" y="0%" width="100%" height="100%" id="b708168e7f"><feColorMatrix values="0 0 0 0 1 0 0 0 0 1 0 0 0 0 1 0 0 0 1 0" color-interpolation-filters="sRGB"/></filter><g/><clipPath id="b9a33d4545"><path d="M 73.4375 160.167969 L 137.496094 160.167969 L 137.496094 214.832031 L 73.4375 214.832031 Z M 73.4375 160.167969 " clip-rule="nonzero"/></clipPath><clipPath id="98b6d0caf3"><path d="M 137.320312 187.5 L 121.417969 214.832031 L 89.339844 214.832031 L 73.4375 187.5 L 89.339844 160.167969 L 121.417969 160.167969 Z M 137.320312 187.5 " clip-rule="nonzero"/></clipPath><mask id="35aa05b810"><g filter="url(#b708168e7f)"><rect x="-37.5" width="450" fill="#000000" y="-37.499999" height="449.999989" fill-opacity="0.58"/></g></mask><clipPath id="a2f57230a8"><path d="M 0.203125 0.605469 L 55.101562 0.605469 L 55.101562 64.296875 L 0.203125 64.296875 Z M 0.203125 0.605469 " clip-rule="nonzero"/></clipPath><clipPath id="18493deddb"><path d="M 27.652344 0.6875 L 55.101562 16.589844 L 55.101562 48.394531 L 27.652344 64.296875 L 0.203125 48.394531 L 0.203125 16.589844 Z M 27.652344 0.6875 " clip-rule="nonzero"/></clipPath><clipPath id="a34037e2dc"><rect x="0" width="56" y="0" height="65"/></clipPath><clipPath id="c807372f7f"><path d="M 81.828125 159.816406 L 129.480469 159.816406 L 129.480469 215.101562 L 81.828125 215.101562 Z M 81.828125 159.816406 " clip-rule="nonzero"/></clipPath><clipPath id="f6a0ccf47a"><path d="M 105.652344 159.886719 L 129.480469 173.691406 L 129.480469 201.296875 L 105.652344 215.101562 L 81.828125 201.296875 L 81.828125 173.691406 Z M 105.652344 159.886719 " clip-rule="nonzero"/></clipPath><clipPath id="34ccd55af8"><path d="M 95.34375 177.230469 L 115.96875 177.230469 L 115.96875 197.769531 L 95.34375 197.769531 Z M 95.34375 177.230469 " clip-rule="nonzero"/></clipPath><clipPath id="3bcf5ab5ab"><path d="M 97.203125 179.085938 L 114.105469 179.085938 L 114.105469 195.914062 L 97.203125 195.914062 Z M 97.203125 179.085938 " clip-rule="nonzero"/></clipPath><mask id="ce38778aae"><g filter="url(#b708168e7f)"><rect x="-37.5" width="450" fill="#000000" y="-37.499999" height="449.999989" fill-opacity="0.3"/></g></mask><clipPath id="e69001e234"><path d="M 0.199219 1 L 5 1 L 5 23.761719 L 0.199219 23.761719 Z M 0.199219 1 " clip-rule="nonzero"/></clipPath><clipPath id="1fe30178b3"><rect x="0" width="5" y="0" height="24"/></clipPath><mask id="de38452113"><g filter="url(#b708168e7f)"><rect x="-37.5" width="450" fill="#000000" y="-37.499999" height="449.999989" fill-opacity="0.3"/></g></mask><clipPath id="f8ff8032fa"><path d="M 0.199219 1 L 5 1 L 5 23.679688 L 0.199219 23.679688 Z M 0.199219 1 " clip-rule="nonzero"/></clipPath><clipPath id="85384614f7"><rect x="0" width="5" y="0" height="24"/></clipPath><mask id="3056040d04"><g filter="url(#b708168e7f)"><rect x="-37.5" width="450" fill="#000000" y="-37.499999" height="449.999989" fill-opacity="0.3"/></g></mask><clipPath id="da31e174e7"><path d="M 0.519531 0.0390625 L 22.359375 0.0390625 L 22.359375 4.839844 L 0.519531 4.839844 Z M 0.519531 0.0390625 " clip-rule="nonzero"/></clipPath><clipPath id="19e0423528"><rect x="0" width="23" y="0" height="5"/></clipPath><mask id="24fe215b14"><g filter="url(#b708168e7f)"><rect x="-37.5" width="450" fill="#000000" y="-37.499999" height="449.999989" fill-opacity="0.3"/></g></mask><clipPath id="ce75107a92"><path d="M 1 0.0390625 L 22.921875 0.0390625 L 22.921875 4.839844 L 1 4.839844 Z M 1 0.0390625 " clip-rule="nonzero"/></clipPath><clipPath id="66b288d38e"><rect x="0" width="23" y="0" height="5"/></clipPath></defs><g clip-path="url(#b9a33d4545)"><g clip-path="url(#98b6d0caf3)"><path fill="#5a399c" d="M 73.4375 160.167969 L 137.285156 160.167969 L 137.285156 214.832031 L 73.4375 214.832031 Z M 73.4375 160.167969 " fill-opacity="1" fill-rule="nonzero"/></g></g><g mask="url(#35aa05b810)"><g transform="matrix(1, 0, 0, 1, 78, 155)"><g clip-path="url(#a34037e2dc)"><g clip-path="url(#a2f57230a8)"><g clip-path="url(#18493deddb)"><path fill="#8c52ff" d="M 0.203125 64.296875 L 0.203125 0.605469 L 55.101562 0.605469 L 55.101562 64.296875 Z M 0.203125 64.296875 " fill-opacity="1" fill-rule="nonzero"/></g></g></g></g></g><g clip-path="url(#c807372f7f)"><g clip-path="url(#f6a0ccf47a)"><path fill="#a693f5" d="M 81.828125 215.101562 L 81.828125 159.816406 L 129.480469 159.816406 L 129.480469 215.101562 Z M 81.828125 215.101562 " fill-opacity="1" fill-rule="nonzero"/></g></g><path stroke-linecap="butt" transform="matrix(0.000000001309, -0.75, 0.75, 0.000000001309, 104.90183, 177.228065)" fill="none" stroke-linejoin="miter" d="M 0.00200355 1.000685 L 23.116588 1.000684 " stroke="#987fff" stroke-width="2" stroke-opacity="1" stroke-miterlimit="4"/><path stroke-linecap="butt" transform="matrix(0, -0.75, 0.75, 0, 104.905368, 215.107486)" fill="none" stroke-linejoin="miter" d="M -0.00251883 1.001176 L 23.252691 1.001176 " stroke="#987fff" stroke-width="2" stroke-opacity="1" stroke-miterlimit="4"/><path stroke-linecap="butt" transform="matrix(-0.75, 0.000000001309, -0.000000001309, -0.75, 129.471968, 188.249988)" fill="none" stroke-linejoin="miter" d="M -0.000917671 0.999984 L 18.389709 0.999984 " stroke="#987fff" stroke-width="2" stroke-opacity="1" stroke-miterlimit="4"/><g clip-path="url(#34ccd55af8)"><path fill="#bfcaff" d="M 95.34375 177.230469 L 115.960938 177.230469 L 115.960938 197.769531 L 95.34375 197.769531 Z M 95.34375 177.230469 " fill-opacity="1" fill-rule="nonzero"/></g><g clip-path="url(#3bcf5ab5ab)"><path fill="#8c52ff" d="M 97.203125 179.085938 L 114.101562 179.085938 L 114.101562 195.914062 L 97.203125 195.914062 Z M 97.203125 179.085938 " fill-opacity="1" fill-rule="nonzero"/></g><path stroke-linecap="butt" transform="matrix(-0.75, -0.000000001309, 0.000000001309, -0.75, 95.340437, 188.249988)" fill="none" stroke-linejoin="miter" d="M 0.000791588 0.999984 L 18.021626 0.999984 " stroke="#987fff" stroke-width="2" stroke-opacity="1" stroke-miterlimit="4"/><g mask="url(#ce38778aae)"><g transform="matrix(1, 0, 0, 1, 103, 156)"><g clip-path="url(#1fe30178b3)"><g clip-path="url(#e69001e234)"><path stroke-linecap="butt" transform="matrix(0.000000001309, -0.75, 0.75, 0.000000001309, 0.405369, 21.329988)" fill="none" stroke-linejoin="miter" d="M 0.00248448 3.001175 L 23.252486 3.001175 " stroke="#987fff" stroke-width="6" stroke-opacity="1" stroke-miterlimit="4"/></g></g></g></g><g mask="url(#de38452113)"><g transform="matrix(1, 0, 0, 1, 103, 194)"><g clip-path="url(#85384614f7)"><g clip-path="url(#f8ff8032fa)"><path stroke-linecap="butt" transform="matrix(0, -0.75, 0.75, 0, 0.405369, 21.205865)" fill="none" stroke-linejoin="miter" d="M -0.00155534 3.001175 L 23.248446 3.001175 " stroke="#987fff" stroke-width="6" stroke-opacity="1" stroke-miterlimit="4"/></g></g></g></g><g mask="url(#3056040d04)"><g transform="matrix(1, 0, 0, 1, 113, 185)"><g clip-path="url(#19e0423528)"><g clip-path="url(#da31e174e7)"><path stroke-linecap="butt" transform="matrix(-0.75, -0.000000001309, 0.000000001309, -0.75, 20.100284, 4.749988)" fill="none" stroke-linejoin="miter" d="M -0.00170477 2.999984 L 22.847255 2.999984 " stroke="#987fff" stroke-width="6" stroke-opacity="1" stroke-miterlimit="4"/></g></g></g></g><g mask="url(#24fe215b14)"><g transform="matrix(1, 0, 0, 1, 75, 185)"><g clip-path="url(#66b288d38e)"><g clip-path="url(#ce75107a92)"><path stroke-linecap="butt" transform="matrix(-0.75, 0, 0, -0.75, 20.43837, 4.749988)" fill="none" stroke-linejoin="miter" d="M 0.00115988 2.999984 L 22.85012 2.999984 " stroke="#987fff" stroke-width="6" stroke-opacity="1" stroke-miterlimit="4"/></g></g></g></g><g fill="#c1ff72" fill-opacity="1"><g transform="translate(147.068798, 201.076436)"><g><path d="M 26.859375 -30.921875 L 35.640625 -30.921875 L 35.640625 0 L 25.96875 0 L 25.96875 -15.765625 L 18.90625 -5.828125 L 11.75 -15.8125 L 11.75 0 L 2.34375 0 L 2.34375 -30.921875 L 10.859375 -30.921875 L 18.90625 -19.5625 Z M 26.859375 -30.921875 "/></g></g></g><g fill="#ffffff" fill-opacity="1"><g transform="translate(184.791452, 201.076436)"><g><path d="M 7.6875 0.53125 C 5.382812 0.53125 3.648438 -0.125 2.484375 -1.4375 C 1.328125 -2.75 0.75 -4.550781 0.75 -6.84375 C 0.75 -9.175781 1.453125 -10.976562 2.859375 -12.25 C 4.273438 -13.53125 6.398438 -14.171875 9.234375 -14.171875 L 13.515625 -14.171875 L 13.515625 -14.265625 C 13.515625 -15.054688 13.21875 -15.613281 12.625 -15.9375 C 12.039062 -16.269531 11.023438 -16.4375 9.578125 -16.4375 C 8.222656 -16.4375 6.90625 -16.3125 5.625 -16.0625 C 4.34375 -15.8125 3.363281 -15.566406 2.6875 -15.328125 L 3.9375 -22.609375 C 4.613281 -22.785156 5.648438 -22.960938 7.046875 -23.140625 C 8.441406 -23.316406 9.953125 -23.40625 11.578125 -23.40625 C 15.492188 -23.40625 18.34375 -22.601562 20.125 -21 C 21.90625 -19.394531 22.796875 -17.117188 22.796875 -14.171875 L 22.796875 0 L 14.40625 0 L 13.515625 -2.25 C 13.222656 -1.664062 12.585938 -1.054688 11.609375 -0.421875 C 10.640625 0.210938 9.332031 0.53125 7.6875 0.53125 Z M 11.359375 -5.828125 C 12.035156 -5.828125 12.5625 -5.988281 12.9375 -6.3125 C 13.320312 -6.632812 13.515625 -7.195312 13.515625 -8 L 13.515625 -9.671875 L 11.359375 -9.671875 C 9.992188 -9.671875 9.3125 -9.023438 9.3125 -7.734375 C 9.3125 -7.054688 9.492188 -6.566406 9.859375 -6.265625 C 10.234375 -5.972656 10.734375 -5.828125 11.359375 -5.828125 Z M 11.359375 -5.828125 "/></g></g></g><g fill="#ffffff" fill-opacity="1"><g transform="translate(208.81873, 201.076436)"><g><path d="M 1.765625 0 L 1.765625 -22.96875 L 10.46875 -22.96875 L 11.359375 -20.71875 C 11.828125 -21.539062 12.460938 -22.207031 13.265625 -22.71875 C 14.078125 -23.238281 15 -23.5 16.03125 -23.5 C 16.675781 -23.5 17.21875 -23.4375 17.65625 -23.3125 C 18.101562 -23.195312 18.398438 -23.066406 18.546875 -22.921875 L 19 -15.1875 C 18.726562 -15.34375 18.296875 -15.5 17.703125 -15.65625 C 17.117188 -15.820312 16.414062 -15.90625 15.59375 -15.90625 C 14.300781 -15.90625 13.269531 -15.539062 12.5 -14.8125 C 11.738281 -14.09375 11.359375 -13.023438 11.359375 -11.609375 L 11.359375 0 Z M 1.765625 0 "/></g></g></g><g fill="#ffffff" fill-opacity="1"><g transform="translate(227.855034, 201.076436)"><g><path d="M 1.765625 -25.625 L 1.765625 -30.921875 L 11.359375 -30.921875 L 11.359375 -25.625 Z M 1.765625 0 L 1.765625 -22.96875 L 11.359375 -22.96875 L 11.359375 0 Z M 1.765625 0 "/></g></g></g><g fill="#ffffff" fill-opacity="1"><g transform="translate(240.713323, 201.076436)"><g><path d="M 4.6875 0 L 4.6875 -18.859375 L 0.96875 -18.859375 L 0.96875 -22.390625 L 4.6875 -22.390625 L 4.6875 -23.140625 C 4.6875 -25.972656 5.375 -28.070312 6.75 -29.4375 C 8.132812 -30.8125 10.019531 -31.5 12.40625 -31.5 C 13.257812 -31.5 14.0625 -31.429688 14.8125 -31.296875 C 15.570312 -31.160156 16.125 -31.035156 16.46875 -30.921875 L 16.703125 -27.296875 C 16.398438 -27.410156 15.898438 -27.539062 15.203125 -27.6875 C 14.515625 -27.84375 13.742188 -27.921875 12.890625 -27.921875 C 11.597656 -27.921875 10.613281 -27.53125 9.9375 -26.75 C 9.257812 -25.96875 8.921875 -24.765625 8.921875 -23.140625 L 8.921875 -22.390625 L 15.8125 -22.390625 L 15.8125 -18.859375 L 8.921875 -18.859375 L 8.921875 0 Z M 4.6875 0 "/></g></g></g><g fill="#ffffff" fill-opacity="1"><g transform="translate(256.790381, 201.076436)"><g><path d="M 6.046875 8.796875 C 5.253906 8.796875 4.578125 8.71875 4.015625 8.5625 C 3.460938 8.414062 3.082031 8.269531 2.875 8.125 L 2.171875 4.421875 C 2.429688 4.566406 2.816406 4.703125 3.328125 4.828125 C 3.847656 4.960938 4.398438 5.03125 4.984375 5.03125 C 5.835938 5.03125 6.550781 4.820312 7.125 4.40625 C 7.707031 4 8.203125 3.238281 8.609375 2.125 L 9.40625 -0.046875 L 0.484375 -22.390625 L 5.078125 -22.390625 L 11.578125 -5.390625 L 17.40625 -22.390625 L 21.828125 -22.390625 L 12.40625 3.265625 C 11.675781 5.265625 10.785156 6.6875 9.734375 7.53125 C 8.691406 8.375 7.460938 8.796875 6.046875 8.796875 Z M 6.046875 8.796875 "/></g></g></g><g fill="#ffffff" fill-opacity="1"><g transform="translate(278.962608, 201.076436)"><g><path d="M 12.8125 -3.3125 C 13.664062 -3.3125 14.472656 -3.40625 15.234375 -3.59375 C 16.003906 -3.789062 16.582031 -3.976562 16.96875 -4.15625 L 16.296875 -0.4375 C 16.003906 -0.226562 15.484375 -0.0390625 14.734375 0.125 C 13.984375 0.300781 13.109375 0.390625 12.109375 0.390625 C 9.742188 0.390625 7.882812 -0.289062 6.53125 -1.65625 C 5.175781 -3.019531 4.5 -5.222656 4.5 -8.265625 L 4.5 -18.859375 L 0.796875 -18.859375 L 0.796875 -22.390625 L 4.5 -22.390625 L 4.5 -26.8125 L 8.75 -27.78125 L 8.75 -22.390625 L 16.5625 -22.390625 L 16.5625 -18.859375 L 8.75 -18.859375 L 8.75 -8.265625 C 8.75 -6.429688 9.09375 -5.144531 9.78125 -4.40625 C 10.476562 -3.675781 11.488281 -3.3125 12.8125 -3.3125 Z M 12.8125 -3.3125 "/></g></g></g></svg>